<?xml version="1.0" standalone="no"?>
<!DOCTYPE svg PUBLIC "-//W3C//DTD SVG 20010904//EN"
 "http://www.w3.org/TR/2001/REC-SVG-20010904/DTD/svg10.dtd">
<svg version="1.0" xmlns="http://www.w3.org/2000/svg"
 width="210.000000pt" height="71.000000pt" viewBox="0 0 210.000000 71.000000"
 preserveAspectRatio="xMidYMid meet">
<metadata>
Created by potrace 1.15, written by Peter Selinger 2001-2017
</metadata>
<g transform="translate(0.000000,71.000000) scale(0.100000,-0.100000)"
fill="#000000" stroke="none">
<path d="M0 355 l0 -355 1050 0 1050 0 0 355 0 355 -1050 0 -1050 0 0 -355z
m1532 48 c3 -167 3 -168 26 -171 17 -3 22 -9 20 -25 -4 -29 -71 -37 -99 -11
-17 16 -19 33 -19 196 l0 178 35 0 35 0 2 -167z m-384 125 c3 -21 -1 -28 -15
-29 -10 0 -49 -1 -88 -2 l-70 -2 -3 -42 -3 -43 85 0 86 0 0 -30 0 -30 -85 0
-85 0 0 -85 0 -85 -35 0 -35 0 0 190 0 191 123 -3 122 -3 3 -27z m-577 -39
c74 -34 138 -66 143 -70 6 -5 -7 -16 -30 -25 -21 -9 -86 -38 -143 -65 -57 -27
-106 -49 -110 -49 -10 0 -302 133 -298 136 7 7 283 133 293 133 6 1 71 -27
145 -60z m1238 -47 c134 -68 88 -262 -63 -264 -55 -1 -103 26 -127 72 -66 123
65 256 190 192z m-543 -71 c15 -44 31 -78 34 -76 3 2 17 38 30 79 23 75 24 76
57 76 18 0 33 -5 33 -11 0 -6 -27 -83 -60 -172 -63 -169 -88 -207 -136 -207
-17 0 -27 8 -34 26 -14 37 -13 42 13 37 29 -6 57 20 57 52 0 13 -20 77 -45
141 -25 64 -45 120 -45 125 0 5 15 9 34 9 33 0 34 -1 62 -79z m-942 -100 c49
-22 95 -41 103 -41 8 0 73 27 145 60 73 33 138 60 146 60 8 0 12 -8 10 -21 -2
-15 -36 -35 -145 -85 -78 -35 -149 -64 -157 -64 -7 0 -76 29 -152 64 -123 56
-139 66 -142 89 l-3 26 53 -23 c29 -13 93 -42 142 -65z m-107 -52 c38 -17 97
-45 133 -62 36 -16 70 -30 75 -30 6 0 72 27 146 61 75 34 141 62 148 62 6 0
11 -9 11 -20 0 -20 -4 -22 -185 -105 -129 -59 -103 -60 -268 14 -125 56 -146
69 -147 89 0 29 6 28 87 -9z"/>
<path d="M331 459 c-47 -22 -80 -43 -75 -48 5 -4 46 -25 92 -46 l83 -39 92 46
91 45 -88 42 c-49 22 -94 41 -100 40 -6 0 -49 -18 -95 -40z"/>
<path d="M1695 375 c-31 -30 -32 -73 -4 -109 43 -55 129 -18 129 56 0 36 -40
78 -75 78 -14 0 -37 -11 -50 -25z"/>
</g>
</svg>
